<svg xmlns="http://www.w3.org/2000/svg" width="187.022" height="188.225" viewBox="0 0 187.022 188.225">
  <g id="empty_logo" transform="translate(-39.17 -207.825)">
    <rect id="Rectangle_1543" data-name="Rectangle 1543" width="138.267" height="27.025" rx="13.512" transform="translate(40.02 285.836) rotate(-30)" fill="#fff"/>
    <rect id="Rectangle_1544" data-name="Rectangle 1544" width="137.639" height="27.025" rx="13.512" transform="translate(87.157 368.168) rotate(-30)" fill="#fff"/>
    <rect id="Rectangle_1545" data-name="Rectangle 1545" width="133.868" height="27.025" rx="13.512" transform="translate(61.389 327.944) rotate(-30)" fill="#fff"/>
    <rect id="Rectangle_1546" data-name="Rectangle 1546" width="32.681" height="27.025" rx="13.512" transform="translate(184.377 256.925) rotate(-30)" fill="#fff"/>
    <g id="Ellipse_55" data-name="Ellipse 55" transform="translate(121.337 215.704)" fill="#fff" stroke="#d5d8dc" stroke-width="1.5">
      <circle cx="3.064" cy="3.064" r="3.064" stroke="none"/>
      <circle cx="3.064" cy="3.064" r="2.314" fill="none"/>
    </g>
    <g id="Ellipse_58" data-name="Ellipse 58" transform="translate(198.378 207.825)" fill="#fff" stroke="#d5d8dc" stroke-width="1.5">
      <ellipse cx="3.502" cy="3.064" rx="3.502" ry="3.064" stroke="none"/>
      <ellipse cx="3.502" cy="3.064" rx="2.752" ry="2.314" fill="none"/>
    </g>
    <g id="Ellipse_57" data-name="Ellipse 57" transform="translate(216.763 314.631)" fill="#fff" stroke="#d5d8dc" stroke-width="1.5">
      <circle cx="3.064" cy="3.064" r="3.064" stroke="none"/>
      <circle cx="3.064" cy="3.064" r="2.314" fill="none"/>
    </g>
    <g id="Ellipse_56" data-name="Ellipse 56" transform="translate(90.696 389.046)" fill="#fff" stroke="#d5d8dc" stroke-width="1.5">
      <circle cx="3.502" cy="3.502" r="3.502" stroke="none"/>
      <circle cx="3.502" cy="3.502" r="2.752" fill="none"/>
    </g>
    <g id="Rectangle_1547" data-name="Rectangle 1547" transform="translate(191.949 376.393) rotate(39)" fill="#fff" stroke="#d5d8dc" stroke-width="1.5">
      <rect width="6.285" height="6.285" rx="3" stroke="none"/>
      <rect x="0.75" y="0.75" width="4.785" height="4.785" rx="2.25" fill="none"/>
    </g>
    <g id="Rectangle_1548" data-name="Rectangle 1548" transform="translate(42.312 236.367) rotate(30)" fill="#fff" stroke="#d5d8dc" stroke-width="1.5">
      <rect width="6.285" height="6.285" rx="3" stroke="none"/>
      <rect x="0.75" y="0.75" width="4.785" height="4.785" rx="2.25" fill="none"/>
    </g>
    <g id="Polygon_3" data-name="Polygon 3" transform="translate(53.702 316.586) rotate(45)" fill="#fff">
      <path d="M 5.316752910614014 6.791853904724121 L 3.482073068618774 6.791853904724121 C 3.029013156890869 6.791853904724121 2.62380313873291 6.557303905487061 2.398153066635132 6.16443395614624 C 2.17249321937561 5.771553516387939 2.174063205718994 5.303353786468506 2.402353048324585 4.912003517150879 L 3.319683074951172 3.339423656463623 C 3.546213150024414 2.951103687286377 3.949843168258667 2.719263792037964 4.399413108825684 2.719263792037964 C 4.848983287811279 2.719263792037964 5.252613067626953 2.951103687286377 5.479143142700195 3.339423656463623 L 6.396482944488525 4.912003517150879 C 6.624763011932373 5.303353786468506 6.626333236694336 5.771553516387939 6.400672912597656 6.16443395614624 C 6.175023078918457 6.557303905487061 5.769813060760498 6.791853904724121 5.316752910614014 6.791853904724121 Z" stroke="none"/>
      <path d="M 4.399413108825684 3.469263553619385 C 4.292152881622314 3.469263553619385 4.093422889709473 3.50149393081665 3.967523097991943 3.717333793640137 L 3.050183296203613 5.28990364074707 C 2.923293113708496 5.507433891296387 2.994673252105713 5.69715404510498 3.048502922058105 5.790884017944336 C 3.102343082427979 5.884613990783691 3.230253219604492 6.041853904724121 3.482073307037354 6.041853904724121 L 5.316753387451172 6.041853904724121 C 5.568572998046875 6.041853904724121 5.696483135223389 5.884613990783691 5.750323295593262 5.790884017944336 C 5.804153442382813 5.69715404510498 5.875533103942871 5.507433891296387 5.748642921447754 5.289913654327393 L 4.831303119659424 3.717333793640137 C 4.705403327941895 3.50149393081665 4.506673336029053 3.469263553619385 4.399413108825684 3.469263553619385 M 4.399413108825684 1.969266414642334 C 5.070253372192383 1.969266414642334 5.741093158721924 2.300018787384033 6.126973152160645 2.961523532867432 L 7.044312953948975 4.534103870391846 C 7.822072982788086 5.867424011230469 6.86033296585083 7.541853904724121 5.316753387451172 7.541853904724121 L 3.482073307037354 7.541853904724121 C 1.938493251800537 7.541853904724121 0.9767532348632813 5.867424011230469 1.754513263702393 4.534103870391846 L 2.671853065490723 2.961523532867432 C 3.057733058929443 2.300018787384033 3.728573322296143 1.969266414642334 4.399413108825684 1.969266414642334 Z" stroke="none" fill="#d5d8dc"/>
    </g>
  </g>
</svg>
